<svg width="469.47998046875px" height="126.802490234375px" xmlns="http://www.w3.org/2000/svg" viewBox="15.260009765625 11.5987548828125 469.47998046875 126.802490234375" style="background: rgba(0, 0, 0, 0);" preserveAspectRatio="xMidYMid"><defs><filter id="editing-extrusion" x="-100%" y="-100%" width="300%" height="300%"><feFlood result="color1" flood-color="rgba(0%,0%,0%,0)"></feFlood><feConvolveMatrix order="2,2" divisor="1" kernelMatrix="1 0 0 1" in="SourceAlpha" result="extrude"></feConvolveMatrix><feComposite in="color1" in2="extrude" result="comp-extrude" operator="in"></feComposite><feOffset dx="1" dy="1" in="comp-extrude" result="offset-extrude"></feOffset><feMerge><feMergeNode in="offset-extrude"></feMergeNode><feMergeNode in="SourceGraphic"></feMergeNode></feMerge></filter></defs><g filter="url(#editing-extrusion)"><g transform="translate(84.45500802993774, 95.40999984741211)"><path d="M29.44-23.96L29.44-32.67L19.35-32.67L19.35-40.82L35.13-40.82L43.31-32.67L43.31-24.36L39.22-20.27L43.31-16.18L43.31-8.15L35.13 0L19.35 0L19.35-8.15L29.44-8.15L29.44-16.86L19.35-16.86L19.35-23.96L29.44-23.96ZM3.60 0L3.60-40.82L17.20-40.82L17.20 0L3.60 0ZM78.10 0L76.38-4.46L63.03-4.46L65.86-12.55L73.24-12.55L62.32-40.82L75.58-40.82L91.85 0L78.10 0ZM66.88-22.76L59.40 0L46.27 0L60.85-38.98L66.88-22.76ZM127.02 0L111.48 0L111.48-8.15L121.57-8.15L121.57-32.67L111.48-32.67L111.48-40.82L127.02-40.82L135.20-32.67L135.20-8.15L127.02 0ZM95.73 0L95.73-40.82L109.33-40.82L109.33 0L95.73 0ZM183.59-23.96L183.59-32.67L173.50-32.67L173.50-40.82L189.28-40.82L197.46-32.67L197.46-24.36L193.37-20.27L197.46-16.18L197.46-8.15L189.28 0L173.50 0L173.50-8.15L183.59-8.15L183.59-16.86L173.50-16.86L173.50-23.96L183.59-23.96ZM157.75 0L157.75-40.82L171.34-40.82L171.34 0L157.75 0ZM216.41-32.55L216.41-8.31L221.52-8.31L221.52 0L211.06 0L202.78-8.15L202.78-32.67L211.06-40.82L221.52-40.82L221.52-32.55L216.41-32.55ZM228.87-8.31L228.87-32.55L223.67-32.55L223.67-40.82L234.22-40.82L242.46-32.67L242.46-8.15L234.22 0L223.67 0L223.67-8.31L228.87-8.31ZM258.18 0L258.18-12.98L244.34-40.82L257.69-40.82L271.81-12.03L271.81 0L258.18 0ZM285.84-40.82L272.67-14.89L266.06-28.30L272.76-40.82L285.84-40.82ZM319.34 0L313.86 0L313.86-15.29L296.20-15.29L288.02-23.47L288.02-32.67L296.20-40.82L300.82-40.82L300.82-26.33L319.58-26.33L327.49-18.15L327.49-8.15L319.34 0ZM313.86-33.47L302.97-33.47L302.97-40.82L319.31-40.82L326.38-33.71L326.38-29.38L313.86-29.38L313.86-33.47ZM288.02-8.15L288.02-12.24L301.62-12.24L301.62-7.38L311.71-7.38L311.71 0L294.88 0L288.02-8.15Z" fill="#ffffff"></path></g></g><style>text {
  font-size: 64px;
  font-family: Arial Black;
  dominant-baseline: central;
  text-anchor: middle;
}</style></svg>